<svg xmlns="http://www.w3.org/2000/svg" viewBox="0 0 512 512"><path d="M286 90h-60c-8.401 0-15 6.599-15 15v107c0 8.399 6.599 15 15 15h60c8.401 0 15-6.601 15-15V105c0-8.401-6.599-15-15-15z" fill="#17ace8"/><path d="M316 45H196c-8.401 0-15 6.599-15 15v15c0 24.899 20.098 45 45 45h60c24.902 0 45-20.101 45-45V60c0-8.401-6.599-15-15-15z" fill="#fd3018"/><path d="M286 227h-30V90h30c8.401 0 15 6.599 15 15v107c0 8.399-6.599 15-15 15z" fill="#1689fc"/><path d="M286 120h-30V45h60c8.401 0 15 6.599 15 15v15c0 24.899-20.098 45-45 45z" fill="#e61e14"/><path d="M421 0H91C74.431 0 61 13.431 61 30c0 16.567 13.431 30 30 30h330c16.569 0 30-13.433 30-30 0-16.569-13.431-30-30-30z" fill="#fd4321"/><path d="M421 0H256v60h165c16.567 0 30-13.433 30-30 0-16.569-13.433-30-30-30z" fill="#fd3018"/><path d="M497 302H365.501c-10.199-6.901-21.903-12.601-34.501-17.1V242c0-8.401-6.599-15-15-15H196c-8.401 0-15 6.599-15 15v42.9c-12.598 4.499-24.302 10.199-34.501 17.1H15c-8.291 0-15 6.709-15 15v150c0 8.291 6.709 15 15 15h131.499c30 19.499 68.701 30 109.501 30s79.501-10.501 109.501-30H497c8.291 0 15-6.709 15-15V317c0-8.291-6.709-15-15-15z" fill="#1bd9de"/><path d="M497 302H365.501c-10.199-6.901-21.903-12.601-34.501-17.1V242c0-8.401-6.599-15-15-15h-60v285c40.8 0 79.501-10.501 109.501-30H497c8.291 0 15-6.709 15-15V317c0-8.291-6.709-15-15-15z" fill="#15b7be"/><g fill="#b7e0f6"><path d="M91 272c-16.569 0-30 13.431-30 30v180c0 16.567 13.431 30 30 30s30-13.433 30-30V302c0-16.569-13.431-30-30-30zM421 272c-16.569 0-30 13.431-30 30v180c0 16.567 13.431 30 30 30s30-13.433 30-30V302c0-16.569-13.431-30-30-30zM151 212c0 16.567 13.431 30 30 30h150c16.569 0 30-13.433 30-30 0-16.569-13.431-30-30-30H181c-16.569 0-30 13.431-30 30z"/></g><path d="M331 182h-75v60h75c16.567 0 30-13.433 30-30 0-16.569-13.433-30-30-30z" fill="#a4d9f5"/></svg>